<?xml version="1.0" encoding="iso-8859-1"?>
<!-- Generator: Adobe Illustrator 19.0.0, SVG Export Plug-In . SVG Version: 6.00 Build 0)  -->
<svg xmlns="http://www.w3.org/2000/svg" xmlns:xlink="http://www.w3.org/1999/xlink" version="1.1" id="Layer_1" x="0px" y="0px" viewBox="0 0 512 512" style="enable-background:new 0 0 512 512;" xml:space="preserve">
<path style="fill:#62DCD2;" d="M295.301,355.548c8.477,10.323,21.339,16.909,35.74,16.909c25.529,0,46.224-20.695,46.224-46.224  c0-2.69-0.242-5.321-0.683-7.885c4.637,1.21,9.501,1.857,14.517,1.857c31.684,0,57.368-25.684,57.368-57.368  c0-14.132-5.12-27.062-13.592-37.06c14.2-10.443,23.421-27.261,23.421-46.239c0-24.891-15.856-46.071-38.015-54.012  c3.598-7.5,5.615-15.904,5.615-24.778c0-31.684-25.684-57.368-57.368-57.368c-1.318,0-2.622,0.061-3.918,0.148  c-2.775-22.876-22.247-40.603-45.871-40.603c-11.053,0-21.197,3.885-29.151,10.357C280.799,5.051,268.992,0,256.001,0  c-12.993,0-24.799,5.051-33.586,13.283C214.46,6.81,204.318,2.925,193.263,2.925c-23.625,0-43.096,17.727-45.871,40.603  c-1.296-0.088-2.6-0.148-3.918-0.148c-31.684,0-57.368,25.684-57.368,57.368c0,8.875,2.018,17.278,5.615,24.778  c-22.159,7.941-38.015,29.122-38.015,54.012c0,18.978,9.221,35.796,23.421,46.239c-8.472,9.998-13.592,22.928-13.592,37.06  c0,31.684,25.684,57.368,57.368,57.368c5.016,0,9.879-0.648,14.517-1.857c-0.441,2.564-0.683,5.195-0.683,7.885  c0,25.529,20.695,46.224,46.224,46.224c12.764,0,24.32-5.174,32.685-13.539"/>
<path style="fill:#54CCC0;" d="M181.487,326.233c0-2.69,0.242-5.321,0.683-7.885c-4.637,1.21-9.501,1.857-14.517,1.857  c-31.684,0-57.368-25.684-57.368-57.368c0-14.131,5.12-27.062,13.592-37.06c-14.2-10.443-23.421-27.261-23.421-46.239  c0-24.891,15.856-46.071,38.015-54.012c-3.598-7.501-5.615-15.904-5.615-24.778c0-31.684,25.684-57.368,57.368-57.368  c1.318,0,2.622,0.06,3.918,0.148c1.773-14.614,10.365-27.117,22.495-34.249c-6.858-4.032-14.843-6.355-23.376-6.355  c-23.625,0-43.096,17.727-45.871,40.604c-1.296-0.088-2.6-0.148-3.918-0.148c-31.684,0-57.368,25.684-57.368,57.368  c0,8.875,2.017,17.278,5.615,24.778c-22.159,7.941-38.015,29.122-38.015,54.012c0,18.978,9.221,35.796,23.421,46.239  c-8.472,9.998-13.592,22.928-13.592,37.06c0,31.684,25.684,57.368,57.368,57.368c5.016,0,9.879-0.648,14.517-1.857  c-0.441,2.564-0.683,5.195-0.683,7.885c0,25.529,20.695,46.224,46.224,46.224c8.531,0,16.516-2.32,23.376-6.35  C190.668,358.075,181.487,343.23,181.487,326.233z"/>
<path style="fill:#FEC95B;" d="M383.185,240.703l-64.381,64.381c-15.042,15.042-23.504,35.452-23.504,56.728V512h-78.604V188.835  H295.3v70.107c0,8.115,9.824,12.179,15.561,6.442l48.508-48.508l0.762,0.762L383.185,240.703z"/>
<path style="fill:#E2AD50;" d="M360.131,217.638l-0.035,11.971l-46.949,46.949c-6.586,6.586-17.848,1.922-17.848-7.393v-10.222  c0,8.115,9.824,12.179,15.561,6.442l48.508-48.508L360.131,217.638z"/>
<path style="fill:#CCCCCC;" d="M166.572,260.928v233.19c0,3.186-2.586,5.772-5.772,5.772c-3.198,0-5.772-2.586-5.772-5.772v-233.19  c0-3.186,2.574-5.772,5.772-5.772C163.986,255.156,166.572,257.742,166.572,260.928z"/>
<path style="fill:#E2AD50;" d="M241.447,277.026v-89.329h-24.446v73.231H167.72v22.973l29.966,16.425  c11.911,6.528,19.316,19.03,19.316,32.613v87.512c0,3.183-3.849,4.777-6.099,2.526l-10.84-10.84  c-3.445-3.444-9.067-3.38-12.431,0.19c-3.251,3.451-2.913,8.957,0.44,12.308l20.133,20.133c5.632,5.632,8.797,13.272,8.797,21.238  V512h24.446V300.178h22.09v-16.277L241.447,277.026z"/>
<path style="fill:#54CCC0;" d="M311.605,147.74c-2.174,6.992-5.18,13.016-9.314,17.847l-1.556,1.769  c-0.522,0.577-1.126,1.087-1.661,1.636c-1.037,1.131-2.345,1.994-3.461,2.985c-0.588,0.469-1.242,0.861-1.847,1.294  c-0.612,0.427-1.212,0.857-1.884,1.19l-1.911,1.101c-0.653,0.332-1.33,0.619-1.982,0.933c-5.258,2.488-10.931,3.454-16.491,3.385  c-5.585-0.084-11.014-1.508-15.927-4.057l-0.384-0.201c-2.572-1.326-5.767-1.253-8.344,0.468c-3.541,2.364-7.628,3.87-11.993,4.357  c-1.094,0.134-2.195,0.094-3.312,0.173l-1.663-0.089l-0.842-0.036l-0.828-0.126c-2.261-0.188-4.428-0.907-6.661-1.63  c-1.057-0.477-2.189-0.877-3.208-1.492c-0.518-0.291-1.099-0.517-1.588-0.862l-1.532-0.995c-1.98-1.42-3.96-3.025-5.646-4.979  l-0.665-0.719c-0.211-0.248-0.391-0.515-0.591-0.773l-1.231-1.569l-1.078-1.696l-0.562-0.863l-0.472-0.907l-0.978-1.856  l-0.825-1.957c-0.14-0.331-0.296-0.665-0.425-1.003l-0.339-1.031l-0.728-2.119c-0.179,0.72-0.357,1.455-0.51,2.201l-0.23,1.129  c-0.052,0.376-0.076,0.754-0.114,1.136c-0.076,0.764-0.12,1.535-0.172,2.319c0.001,0.773,0.038,1.552,0.082,2.338  c0.015,1.594,0.389,3.125,0.65,4.725c0.443,1.523,0.786,3.148,1.472,4.622c0.317,0.75,0.607,1.53,0.966,2.272l1.195,2.174  c0.383,0.747,0.879,1.411,1.347,2.107c0.486,0.68,0.926,1.415,1.495,2.032c2.122,2.632,4.672,4.954,7.521,6.938  c0.712,0.493,1.468,0.919,2.213,1.378c0.746,0.457,1.51,0.884,2.315,1.233l2.403,1.096l2.505,0.86l1.266,0.412l1.295,0.296  l2.612,0.564l2.654,0.298c0.889,0.1,1.78,0.185,2.676,0.187c5.498,0.126,11.09-1.019,16.2-3.28  c6.356,2.79,13.366,4.159,20.251,3.816c8.427-0.433,16.813-3.064,23.542-7.932c3.459-2.282,6.343-5.286,8.934-8.369  c1.206-1.636,2.422-3.233,3.369-5.008c0.485-0.876,1.026-1.705,1.425-2.622l1.175-2.729c0.42-0.883,0.679-1.846,0.962-2.783  c0.262-0.947,0.592-1.853,0.779-2.809c0.345-1.923,0.754-3.785,0.794-5.709C313.077,155.026,312.531,151.239,311.605,147.74z"/>
<path style="fill:#E2AD50;" d="M295.3,188.835v14.384c-6.719,4.86-15.111,7.492-23.538,7.931c-6.88,0.335-13.888-1.027-20.248-3.821  c-5.114,2.263-10.701,3.406-16.196,3.279c-0.9,0-1.789-0.081-2.678-0.185l-2.655-0.3l-2.609-0.566l-1.304-0.289l-1.258-0.416  l-2.505-0.866l-2.401-1.085c-0.808-0.358-1.57-0.785-2.32-1.235c-0.289-0.185-0.589-0.358-0.889-0.543v-14.395l0.046,0.035  c0.496,0.346,1.074,0.566,1.593,0.866c1.016,0.612,2.147,1.016,3.209,1.489c2.228,0.716,4.398,1.443,6.661,1.628l0.82,0.127  l0.843,0.035l1.674,0.092c1.108-0.081,2.216-0.046,3.302-0.173c4.375-0.496,8.462-1.997,11.994-4.364  c2.586-1.72,5.772-1.789,8.346-0.462l0.381,0.196c4.918,2.551,10.343,3.971,15.931,4.064c5.564,0.069,11.232-0.9,16.496-3.394  c0.646-0.312,1.328-0.6,1.974-0.924l1.916-1.108L295.3,188.835L295.3,188.835z"/>
<path style="fill:#B3B3B3;" d="M166.572,260.928v50.678h-11.544v-50.678c0-3.186,2.574-5.772,5.772-5.772  C163.986,255.156,166.572,257.742,166.572,260.928z"/>
<polyline style="fill:#FD5D65;" points="263.536,135.433 263.536,283.901 126.162,283.901 126.162,129.326 192.494,129.326 "/>
<polyline style="fill:#E54E5C;" points="263.536,131.281 263.536,178.833 126.162,178.833 126.162,129.326 192.494,129.326 "/>
<polygon style="fill:#F2F2F2;" points="274.29,161.649 115.409,161.649 126.156,129.326 192.489,129.326 263.531,130.607   263.727,131.173 268.437,144.772 "/>
<rect x="160.798" y="192.82" style="fill:#415E72;" width="68.11" height="50.794"/>
<path style="fill:#CCCCCC;" d="M268.437,144.772c-0.115,0.081-0.231,0.162-0.346,0.242c-6.73,4.86-15.123,7.492-23.55,7.931  c-6.88,0.335-13.887-1.027-20.248-3.821c-5.102,2.263-10.701,3.406-16.196,3.279c-0.9,0-1.789-0.081-2.678-0.185l-2.655-0.3  l-2.609-0.566l-1.293-0.289l-1.27-0.416l-2.505-0.854l-2.401-1.097c-0.808-0.346-1.57-0.773-2.32-1.235  c-0.739-0.462-1.501-0.889-2.205-1.385c-2.851-1.974-5.403-4.306-7.527-6.938c-0.566-0.612-1.004-1.351-1.489-2.032  c-0.473-0.693-0.97-1.351-1.351-2.101l-1.201-2.17c-0.358-0.75-0.646-1.524-0.958-2.274c-0.185-0.404-0.346-0.82-0.496-1.235h9.986  c0.935,0.808,1.905,1.547,2.874,2.24l1.524,0.993c0.496,0.346,1.074,0.566,1.593,0.866c1.016,0.612,2.159,1.016,3.209,1.489  c2.228,0.716,4.398,1.443,6.661,1.628l0.831,0.127l0.843,0.035l1.662,0.092c1.12-0.081,2.216-0.046,3.313-0.173  c4.364-0.485,8.45-1.997,11.994-4.364c2.574-1.72,5.772-1.789,8.335-0.462l0.393,0.196c4.906,2.551,10.343,3.971,15.931,4.064  c5.553,0.069,11.221-0.9,16.485-3.394c0.658-0.312,1.328-0.6,1.986-0.924l0.97-0.566L268.437,144.772z"/>
<g>
	<path style="fill:#54CCC0;" d="M291.455,96.844c-2.174,6.992-5.18,13.016-9.314,17.847l-1.556,1.769   c-0.522,0.577-1.126,1.087-1.661,1.636c-1.037,1.131-2.345,1.994-3.461,2.985c-0.588,0.469-1.242,0.861-1.847,1.294   c-0.612,0.427-1.212,0.857-1.884,1.19l-1.911,1.101c-0.653,0.332-1.33,0.619-1.982,0.933c-5.258,2.488-10.931,3.454-16.491,3.385   c-5.585-0.084-11.014-1.508-15.927-4.057l-0.384-0.201c-2.572-1.326-5.767-1.253-8.344,0.468c-3.541,2.364-7.628,3.87-11.993,4.357   c-1.094,0.134-2.195,0.094-3.312,0.173l-1.663-0.089l-0.842-0.036l-0.828-0.126c-2.261-0.188-4.428-0.907-6.661-1.63   c-1.057-0.477-2.189-0.877-3.208-1.491c-0.518-0.291-1.099-0.517-1.588-0.862l-1.532-0.995c-1.98-1.42-3.96-3.025-5.646-4.979   l-0.665-0.719c-0.211-0.248-0.391-0.515-0.591-0.773l-1.231-1.569l-1.078-1.696l-0.562-0.863l-0.472-0.907l-0.978-1.856   l-0.825-1.957c-0.14-0.331-0.296-0.665-0.425-1.003l-0.339-1.031l-0.728-2.119c-0.179,0.72-0.357,1.455-0.51,2.201l-0.23,1.129   c-0.052,0.376-0.076,0.754-0.114,1.136c-0.076,0.764-0.12,1.535-0.172,2.319c0.001,0.773,0.038,1.552,0.082,2.338   c0.015,1.594,0.389,3.125,0.65,4.725c0.443,1.523,0.786,3.148,1.472,4.622c0.317,0.75,0.607,1.53,0.966,2.272l1.195,2.174   c0.383,0.747,0.878,1.411,1.347,2.107c0.486,0.68,0.926,1.415,1.495,2.032c2.122,2.632,4.672,4.954,7.521,6.938   c0.712,0.493,1.468,0.919,2.213,1.378c0.746,0.457,1.51,0.884,2.315,1.233l2.403,1.096l2.505,0.86l1.266,0.412l1.295,0.296   l2.612,0.564l2.654,0.298c0.889,0.1,1.78,0.185,2.676,0.187c5.498,0.126,11.09-1.019,16.2-3.28   c6.356,2.79,13.366,4.159,20.251,3.816c8.427-0.433,16.813-3.064,23.542-7.932c3.459-2.282,6.343-5.286,8.934-8.369   c1.206-1.636,2.422-3.233,3.369-5.008c0.485-0.876,1.026-1.705,1.425-2.622l1.175-2.729c0.42-0.883,0.679-1.846,0.962-2.783   c0.262-0.947,0.592-1.853,0.779-2.809c0.345-1.923,0.754-3.785,0.794-5.709C292.927,104.131,292.382,100.344,291.455,96.844z"/>
	<path style="fill:#54CCC0;" d="M369.96,193.412c-2.386,7.58-2.444,13.78-1.132,19.132c1.33,5.329,3.842,9.577,7.254,13.011   c3.447,3.396,7.687,5.905,13.011,7.229c5.346,1.307,11.537,1.262,19.132-1.108c-1.173,3.849-3.793,7.209-7.152,9.795   c-3.379,2.559-7.551,4.307-11.98,4.945c-4.429,0.655-9.109,0.211-13.496-1.283c-4.39-1.485-8.47-4.043-11.758-7.337   c-3.287-3.295-5.84-7.374-7.321-11.765c-1.494-4.386-1.928-9.063-1.274-13.489c0.641-4.426,2.386-8.595,4.941-11.972   C362.765,197.214,366.121,194.594,369.96,193.412z"/>
</g>
<g>
</g>
<g>
</g>
<g>
</g>
<g>
</g>
<g>
</g>
<g>
</g>
<g>
</g>
<g>
</g>
<g>
</g>
<g>
</g>
<g>
</g>
<g>
</g>
<g>
</g>
<g>
</g>
<g>
</g>
</svg>
